<?xml version="1.0" encoding="UTF-8"?>
<svg xmlns="http://www.w3.org/2000/svg" viewBox="0 0 792 612">
  <defs>
    <style>
      .cls-1 {
        opacity: .07;
      }

      .cls-1, .cls-2, .cls-3, .cls-4 {
        fill: #fff;
      }

      .cls-5 {
        fill: #2e3192;
      }

      .cls-6 {
        opacity: .17;
      }

      .cls-7 {
        fill: #f7b462;
      }

      .cls-3 {
        opacity: .14;
      }

      .cls-8 {
        opacity: .8;
      }

      .cls-8, .cls-9 {
        fill: #006837;
      }

      .cls-4 {
        opacity: .11;
      }
    </style>
  </defs>
  <g id="Layer_5" data-name="Layer 5">
    <g class="cls-6">
      <circle class="cls-7" cx="396" cy="306" r="122.12"/>
    </g>
    <circle class="cls-5" cx="396" cy="306" r="118.08"/>
  </g>
  <g id="Layer_2" data-name="Layer 2">
    <path class="cls-8" d="M285.17,329.13v-2.74l1.17-1.04s-.39-5.09,0-4.7.65,1.17.65,1.17l1.7-3.91,2.22-2.61.78-5.09,1.96-2.87,3.65-3h12.13l3.65-5.48,1.04,1.3,4.04-2.87,4.17-1.57v-1.83h.91l.65,1.43,2.22-.85v-1.76l1.3-1.17h1.3l1.96-1.83,3.13-4.7.52-1.96,3-2.74v-1.43l-.78-2.74.26-1.43,1.96,1.3v1.57s2.22.52,1.83,0-.78-2.87-.78-2.87l-1.17-2.35h-1.57l-.78-8.35,1.96-5.22,1.43.65-1.04,4.7.39,3.13h1.61l1.52-2.48,1.83-.26.78.39,1.7-1.83,3.78,1.04,1.43,1.17v2.87l-1.57,3,1.57,1.04,3.65-4.3,1.17.78,1.83.26-1.7,4.04h-1.57l-.13,1.96,4.17-.65,2.48-.13v7.43l-1.3,2.61-2.74,2.35-3.13,3.91-5.09,6.39.91,4.43.91,3.52-1.57,4.04-1.3,3.26,2.22,1.3,2.22-.91,1.57-.39-1.7-4.14,2.48-2.03,2.61,2.03h2.48l-.39,4.27-1.43,2.35-1.7,2.35,1.04,1.83,1.57.13,1.43,1.83-3.78.91-2.35,1.83-.65,2.48-3.52-.39-.26-3.26-1.96-3.39-.91-2.22,1.83-1.96-1.57-.52-1.57,1.57.39,2.61.13,2.87-.91.65,2.61.39.26,1.7v3.26l1.7,1.83,3.65-.65v1.83l-3.65,1.57,1.17,1.17h1.96l.78-1.7.91-1.7,1.3-.78,1.83-.13,1.7.26-2.48,3.13-1.57.91.78,2.22-2.48.65,1.17,1.17-2.09,1.04-.26,2.35-.13,1.04h-2.87l-.39-2.35-1.04,2.35h-3.39l-1.57-1.04-2.09-.65h-2.35l-3.26.52-.26,2.61-1.57,2.09.26,3.39.78,2.09.91,2.61.83,3.35s1.3,1.74.87,1.91-2.96,2.43-2.96,2.43l.52,3.22,1.39.43,1.91-.35.78-2.17.52-1.39,1.74.7,2.78.35,1.83-2.09-.26-2.61,2.52-.7,2.43-2.52.87-.96,3.48,3.83.78,3.13.09,2.09-1.13,1.91.87,2.61,2.26.52,2.52-2.09s.26,3.74.35,4.26-.09,3.74-.09,3.74l-.7,2.26,1.48,1.74s1.13.96,1.22,1.22,1.04,1.48,1.04,2.52v2l-1.04.78.61.61-2.35,1.39,3.57,3.57-.43,1.13.96,1.83h-1.74l-.7-2-1.74.7-.35-1.48-4.35-2.43,5.13-3.13-6.26-.7-2.61-2.35-3.22-2.09-3.3-.61h-5.57l5.74,1.22,4,2.09-3.22.43.78,1.39.7,1.83,1.39.78.17,1.22h3.3s.61,1.13.26,1.3-1.91.52-2.26.52-5.48-1.48-5.48-1.48l-2.52-.87.78-.96,2.17-.26-8.78-2.96-1.74,1.39-2.26-.87-2.26-1.83-4.61.17-.87-1.91-1.74,1.57,1.13.87-1.57.78-8.96-4.96-1.48,3.74-2.35-1.04.87-5.65-6.96-8.87-4.43-6.78-4-5.65-3.57.26.43,3.3,2.09,4.7,3.65,4.87,8,17.47-7.91-10.15-6.15-9.84-4.42-8.87-2.15-4.91.98-13.35.35-6.52.78-4.57,1.13-1.52.26-2.43-1.57.43-.52,3.04-2.52,4.3Z"/>
    <path class="cls-8" d="M360.27,267.83c.07,0,0-4.96,0-4.96l5.12-.16h1.24l.33-1.34v-1.83l2.22-1.24-2.87-1.17-1.13-2.22,2.24-2.09,2.87-2.8,1.11-3.07s2.61.33,2.93,0,1.3-2.09,1.3-2.09l1.3.46,3.2-3.98v-2.28h-1.63v-3l.33-1.7,1.83-2.48,1.11-2.28.98-2.61,2.35-.78,1.37,3.65,1.3,4.7-1.76,3.26s-2.09,2.74-2.35,2.87-2.41,4.11-3.07,4.5-1.5,1.83-1.5,1.83l.65,1.83,1.43-.39.39-2.87,1.57-1.37,1.3,2.15s1.5-.39,2.09-.59,2.61-.85,2.41-1.11.33-3.52.33-3.52l.26-.78s3-.65,4.5-.33,5.02-.13,5.61,0,3.78.39,3.78.39l5.15-3.46,5.8-3.39-3.2-3-1.63.85-2.87-2.09,1.37-4.63,1.37-3.07,3.72-2.74,3.65-1.96,4.04-1.3,3.13.98,3.07-.07,1.57-1.76h3.72l.33-2.54-.65-2.87h3.46s1.04,3.2,1.04,3.39.85,3,0,3.2,3.26,1.7,3.26,1.7c0,0,1.89.52,1.7.78s-1.76,2.09-1.76,2.09c0,0,1.96-.07,3.2.26s4.11.33,4.11.33l.72-.46-1.83-2.74-3.39-.72-1.24-1.43,4.37.2,1.7-.13-1.57-2.22-.91-3.91,1.11-1.11,4.04.59,3.13.52,4.3,1.04,3.85,2.41s4.24,2.28,4.24,2.61,2.48,2.22,2.67,2.48,3.39,2.41,3.39,2.41l2.48,1.17,2.09.65s3.91,3.59,4.04,3.78,3.72,4.63,3.98,5.02,3.98,6.2,4.3,6.52,3.13,5.54,2.74,5.67.46,2.87.46,2.87l2.74,3s4.89,6.98,4.89,7.24,2.61,2.74,2.61,2.74c0,0,1.57,3.33,1.76,3.85s3.59,9.59,3.2,9.98.03,5.93.03,5.93l.62,7.17s.46,13.17.39,13.5.14,6.85,0,7.43-1.31,5.8-1.31,5.8l-.85,5.8-2.35,3.91-.52,3.65s2.67-1.24,2.93-1.76,1.57-4.76,1.83-5.41,1.43-5.61,1.43-6,4.97-10.63,4.97-10.63c0,0,.05,1.37.05,1.57s0,4.43-.06,5.63c-.03,1.73-.49,8.27-.62,8.99s-.74,6.42-1.14,8.02c-.59,1.17-3.85,8.02-4.17,8.15s-3.26,6.52-3.26,6.52c0,0-1.24,2.09-1.57,2.35s-3.52,2.22-3.65,2.74-2.8,4.43-2.8,4.43l-1.04,2.48,4.7-3.78s2.15-2.93,2.48-3.2,4.54-1.45,4.54-1.45c0,0-2.29,6.01-2.62,6.8-.36.84-2.2,4.91-2.97,6.49-.52,1.15-4.72,8.87-5.86,10.47-.65,1.1-7.29,10.64-8.54,11.88-.17.6-7.24,8.08-7.24,8.08l-6.34,5.99c-3.76,3.3-7.88,6.44-12.29,9.45-4.51,3.03-9.28,5.76-14.3,8.19-5.01,2.74-13.31,5.57-20.25,7.57l-1.42-4.15,6-5.09,4.89-3.59,5.15-6.46,5.67-2.87,17.87-14.87s2.15.65,2.02,1.04l-.59,1.57,5.8-4.63,8.09-6.39.2-2.15,7.3-8.93,6.59-12.59-2.48-3.78s-2.15,1.24-2.09,1.43-.13,3.39-.91,4.3-2.87,4.76-3.2,5.02-4.11,3.13-4.11,3.13l-2.61-1.37-2.61,5.28,3.13-.98-.46,2.15.65,1.24-1.63,1.83s-2.02-1.43-1.83-1.43-3.13,1.83-3.13,1.83l-2.22-.78-5.54,3.72-5.15-.46s-.72,1.37-.26,1.63,5.15.98,5.15.98l3.13-2.02,2.48-1.5,1.04-.13-1.83,2.09s1.83.65,1.5.72-.85,1.83-.85,1.83l-1.57-1.57-1.3,1.24-4.24,2.48-3.85.13-2.41.13-1.5,3.39-4.5,3.33-1.04,1.24.52,1.43-2.09,2.93-.52,1.83.72,1.24-1.7,2.28s-1.83,2.02-2.28,2.15-4.63,1.7-4.63,1.7l-3.72,1.11-2.35-.59.59-2.67-1.7-1.89,3.33-2.61,5.54-2.35.98-.59.65-1.3-.13-1.57-2.54-1.24-3.78.39-1.24-.33,3.46-2.22.33-1.57,1.89-.59,1.5-2.41-.26-1.24,1.3-2.41,2.28-3.98,1.24-2.09-.07-1.7-2.09-.85-1.63-2.74.39-1.96,1.43.91,1.17,1.63.46,1.24,2.28.33s2.15-2.54,2.41-2.61,2.87-2.74,2.87-2.74l2.35-2.87.26-1.96-.59-1.89-2.61-1.57.2-1.89,2.09.07.52-1.5-2.67-.85-.98-.91,1.43-2.8.65-2.93-2.15,1.89-1.7,4.11-2.48,1.24-2.67-.59s-.85-2.8-.85-3-.2-3.72-.2-3.72l-.72-1.37-2.22-.07.39,4.11,1.3,3.52.98,3.46,3.65.78,1.24,2.74s1.04,3.2,1.04,3.39-.39,3.91-.39,3.91l-2.67-.2-1.5-1.3-2.22-.91,1.63-2.48-3.39,1.17-.91,2.15-.07,2.48-.85,1.96-2.48-.72-1.5-2.67s-1.89-5.05-1.79-5.02.95-1.63,1.04-1.7.75-2.25.75-2.25l-.16-4.3-2.38-4.92-.93-4.74,1.78-4.7,2.17-2.96,1.35.22,2.57-2.3,3.87-3.26,2.09-.78,1.48.43.35,2.09s-.04,1.17-.17,1.3-3.13,3.22-3.13,3.22h4.91s1.52-.35,1.7-.43.57-1.7.57-1.7l-.83-.91s-.87,1.74-1.13,1.78-.78-1.57-.78-1.57l2.04-1.74-1.91-.78-.48-3.52-3.61-1.22-1.26-1.3,2.04-1.17.83,1.7,2.04-.09-3.74-8.12h1.74l-.91-5.23-1.35-.74-1.3.52.57-3.26,1.83-3.22-.04-1.43-2.57,1.65-2.48,1.52-2.7-.48s-1.7-.17-1.87-.3-.61-2.43-.61-2.43l3.7-.57,3.61-1.22,2.26-.96,2.57.09,1.61,1.87.35.61.48-3.43-2.7-1.41-3.52,1.28-3.48.91-4.09.91-.43-3.11-.91-2.76s-2.43,1.65-2.57,1.74-2.91-2.91-2.91-2.91l-2.48.74-11.04-6.43-.22-3.83,3.91-.7,3.61-.04-7-4.39-3.17-3.57s-1.04,2.26-1.13,2.04-1.83-2-1.83-2l1.52-2.04-2.65-3.74s-1.65,1.17-1.91,1.22-4.43-1.61-4.43-1.61l-.35,2.7-4.39-.43-3.22-2.17-3.35-1.7-4.26.96-1.13-3.3-1.52-.78-.83,1.35-3.22,1.48-2.7.09s.43.96.22,1.22-2.43,1.52-2.43,1.52l-2.7.65-7.39-.43-2.04-1.04-1.26,1.3-2.86.22Z"/>
    <path class="cls-5" d="M478.74,356.26l-1.91-4.74s.09-3.65.43-3.87,2.39-2.39,2.39-2.39c0,0,.04-5.43,0-5.65s1.39-2.57,1.39-2.57l1.48,3.39.96.87,3-3.83,2.22-1.7.52,3.26s-1.52,3.74-1.65,3.91-2.61,5.96-3.35,6.96-.87,3.65-1.43,4-3.65,2.83-3.65,2.83l-.39-.48Z"/>
    <path class="cls-5" d="M488.22,314.13l-3.13,4.43,1.57,4.87s1.65,1.57,1.57,1.83,3.3-.43,3.3-.43l1.39-2.09s2.26.7,1.83.87,1.13.61,1.13.61l1.13-2.61,1.57-2.26v-2.7l-1.04-1.65s-1.22-.09-1.65.26-.87,1.48-.87,1.48l-1.39-1.13-.43-1.48-.96,2.09-.39,2.17-1.87,1.33-1.91-.81.26-3.65-.09-1.13Z"/>
    <polygon class="cls-5" points="480.83 276.04 482.78 282.7 485.09 284.26 483.7 279.3 480.83 276.04"/>
    <path class="cls-5" d="M445.05,250.93l2.51-1.11,1.73-.16,1.43.33,1.92.59s.98.62,1.11.62h1.24l.95-1.24-.26-1.3-1.01-1.3-2.54-.82-2.58-.29-2.58.2-1.37.23-1.4,1.37-1.63,1.63,1.6,1.53.88-.26Z"/>
    <path class="cls-2" d="M378.17,330.7l-.78,5.09s2.74,4.17,3.13,4.17,1.04,3.52,1.04,3.52c0,0-.26,5.35-1.04,5.74s-1.04,3.91-1.04,3.91l1.57,1.04-2.48,2.57s-2.74,5.65-2.61,6.04,2.09,7.04,1.7,7.17,5.22,5.22,5.22,5.22l4.3-6.65,2.61-4.04,4.04-.65,4.43-4.04,4.57-1.17,1.7-3.26v-2.41l-.65-6.67-.65-6.7-1.3-6.91,2.61-1.96-1.43-2.74h-2.74l-2.61-2.64s-2.78.55-2.83.55-2.65.78-2.65.78l-1.17,1.96-2.35-.78-2.35-.26-2.22,1.83-.91,1.83-5.09-.52Z"/>
    <path class="cls-2" d="M387.78,326.35v-2.28l-2.3-2.54-3.72-1.15-3.46-.61s-2.78.09-2.98.2-1.78,2.41-1.78,2.41l-.85,2.02s.8.83.87.93.39,1.68.39,1.68l-.98.61-2.07-1.02s-.46,1.52-.46,1.63,1.09,2.09,1.13,2.39,1.41,1.04,1.5,1.04,2.3-.89,2.46-1.02,3.33-1.91,3.33-1.91l3.04-.85,3.63-1.26,2.24-.26Z"/>
    <polygon class="cls-2" points="364.35 308.59 363.3 310.8 365.65 312.92 367.67 312.43 366.37 310.28 364.35 308.59"/>
    <path class="cls-2" d="M362.2,312.92c-.07.03-1.5,3.29-1.5,3.29l2.61,1.43,1.57-2.36-2.67-2.36Z"/>
    <polygon class="cls-2" points="364.87 321.24 364.02 323.26 365.17 324.3 367.67 323.2 367.41 321.24 364.87 321.24"/>
    <polygon class="cls-2" points="372.24 317 370.15 318.17 370.15 319.76 370.15 320.78 372.24 320.46 372.24 317"/>
    <polygon class="cls-2" points="367.35 314.13 367.35 315.89 369.04 316.15 369.63 314.13 367.35 314.13"/>
    <polygon class="cls-2" points="358.41 323.13 356.85 326.59 358.41 327.57 361.02 326.85 362.46 324.83 360.27 323.13 358.41 323.13"/>
    <polygon class="cls-2" points="363.63 328.22 361.28 330.5 364.48 331.02 365.49 328.74 363.63 328.22"/>
    <polygon class="cls-2" points="367.35 325.35 364.87 326.78 369.24 331.02 368.85 327.57 369.24 324.7 367.35 325.35"/>
    <path class="cls-2" d="M360.7,332.39s-2.41,2.02-2.41,2.22,3,5.28,3,5.28l2.41,2.41s.78,5.28.33,5.61-3.75,2.93-3.75,2.93h-2.71l-1.3-1.57-1.37.96,1.96,2.49,1.24,3.72,1.44,3.59,2.08,2.28-.91-4.43,2.69,2.35,1.48-1.3-.85-3.91,1.47-1.17,1.57,3.91,2.58-.72-2.28-7.76,1.43-.78-.72-8.02.85-2.93-1.24-2.74-1.83-2.15-5.15-.26Z"/>
    <polygon class="cls-2" points="354.57 339.89 354.57 343.87 358.41 343.35 360.96 341.88 358.48 338.72 354.57 339.89"/>
    <polygon class="cls-2" points="358.93 346.15 359.65 348.04 361.93 347.36 361.28 344.78 358.93 346.15"/>
    <polygon class="cls-9" points="347.65 343.87 347.98 345.96 349.87 346.41 350.78 348.76 352.09 349.02 352.41 346.45 352.09 343.61 351.04 342.57 347.65 343.87"/>
    <path class="cls-9" d="M405.7,364.87c.26-.26,3.59-2.54,3.59-2.54l3.46-.65s2.61,1.63,2.61,1.6,0,2.12,0,2.12l-3.85,2.15-2.87.65-2.93-3.33Z"/>
    <path class="cls-8" d="M426.43,384.76l-.46-4.04,2.09-1.43-.59-3.33,2.54,1.57,1.43,2.84s.39,1.86,0,2.05-3.39,2.35-3.39,2.35h-1.63Z"/>
    <polygon class="cls-8" points="435.57 380.72 434.59 384.3 441.43 378.83 438.01 375.7 434.59 373.61 429.37 371.65 425.13 371.65 425.13 373.48 428.8 375.5 432.76 377.98 434.07 379.8 433.74 381.43 435.57 380.72"/>
    <path class="cls-9" d="M417.17,322.09l-2.15,3.62s.46,1.66.26,1.66-2.09,1.57-2.09,1.57l3.52.68.78-1.4,1.57,2.35,2.09.46-2.87-4.04,3.85.46-1.57-2.12-3.13.39.78-2.45-1.04-1.17Z"/>
    <polygon class="cls-9" points="427.87 304.8 432.17 311.13 436.41 313.28 440.65 314.33 440.98 313.28 442.22 312.92 442.8 310.02 439.74 311.39 435.57 310.02 432.89 307.22 430.28 304.8 427.87 304.8"/>
    <polygon class="cls-9" points="413.91 296.39 416.72 292.41 417.96 292.74 418.35 295.28 416.85 297.24 413.91 297.7 413.91 296.39"/>
    <polygon class="cls-9" points="415.74 289.09 418.35 288.37 418.35 290.26 415.74 291.24 415.74 289.09"/>
    <path class="cls-9" d="M403.61,273.43c-.2.07-4.76.98-4.76.98l.65,1.37,1.73.78,2.38.46v-3.59Z"/>
    <polygon class="cls-2" points="370.54 271.02 371.46 273.43 375.57 273.11 375.57 270.7 370.54 271.02"/>
    <polygon class="cls-9" points="403.87 230.13 405.83 226.02 405.83 221.91 407.07 218.78 404.85 218.07 404.26 220.41 404.33 222.7 401.72 222.57 403.22 224.91 403.35 228.04 403.87 230.13"/>
    <path class="cls-8" d="M401.07,213.76l4.7-1.96,2.28.98,1.89-1.43-1.83-2.22.59-3.07,3.2-1.7h8.61s1.43,1.63,1.76,1.37.91-.98,1.11-.91,2.67.52,2.67.52l1.89-.98h1.17l1.24,2.28-4.3.78h-2.54c-.33,0-4.63-.26-4.63-.26l-1.76-.2-4.63,2.09-1.37,1.7.13,1.96-.91,1.04c-.46.52-4.57,2.09-4.3,2.09s-4.96-2.09-4.96-2.09Z"/>
  </g>
  <g id="Layer_4" data-name="Layer 4">
    <path class="cls-3" d="M365.49,222.48l30.51,5.22s20.76,8.35,21.66,10.43,21.08,37.91,21.08,37.91c0,0-17.5,6.63-18.78,8.22s-37.22-10.91-37.91-13.57-16.2-30.13-16.2-30.13l-18.2-11.83-9.43-12.89-5.94-9.28,6.96-4.16,8.58-4.25,17.67,24.31Z"/>
    <path class="cls-3" d="M375.98,217.26l30.51,5.22s20.76,8.35,21.66,10.43,21.08,37.91,21.08,37.91c0,0-17.5,6.63-18.78,8.22s-37.22-10.91-37.91-13.57-16.2-30.13-16.2-30.13l-18.2-11.83-9.43-12.89-5.94-9.28,6.96-4.16,8.68-3.23,17.57,23.3Z"/>
    <path class="cls-1" d="M413.91,301.78c-2.3.7-23.68,15.87-23.68,15.87l-11.12,30.39s35.62,22.52,37.01,23.61,34.78,4.26,35.13,6.33,12.87,19.8,12.87,19.8l1.15,3.84,17.68-15.74,8.86-9.93-20.04-40.17-32.74-33.52-25.13-.48Z"/>
    <path class="cls-1" d="M378.5,377.3c-1.12.34-11.54,7.73-11.54,7.73l-5.42,14.81s7.79,20.84,8.46,21.37,14.75,2.34,20.55,2.75c1.02.07,12.4.12,12.4.12l3.06-.36,6.11-5.44,4.32-4.84-9.76-19.58-15.95-16.33-12.25-.23Z"/>
    <path class="cls-1" d="M390.56,377.07c-1.12.34-11.54,7.73-11.54,7.73l-5.42,14.81s7.79,20.84,8.46,21.37,14.75,2.34,20.55,2.75c1.02.07,11.03-1.01,11.03-1.01l4.5-.78,6.05-3.89,4.32-4.84-9.76-19.58-15.95-16.33-12.25-.23Z"/>
    <path class="cls-1" d="M423.79,293.95c-2.3.7-23.68,15.87-23.68,15.87l-11.12,30.39s35.62,22.52,37.01,23.61,34.78,4.26,35.13,6.33,12.87,19.8,12.87,19.8l1.15,3.84,15.1-16.88,8.7-13.11-17.29-35.85-32.74-33.52-25.13-.48Z"/>
    <path class="cls-4" d="M309.25,225.89v26.5l5.31,27.76s18.78,19.54,18.78,21.63,19.22,29.83,17.96,31.26-1.27,23.7-1.27,23.7l-2.38,23.62-24.04-2.38-17.39-36.68-24.7-27.16-3.4-15.14,1.76-14.6,3.4-13.7,5.69-14.66,11.14-18.98,9.13-11.17Z"/>
    <path class="cls-4" d="M317.19,218.07l-.89,23.61,5.31,27.76s18.78,19.54,18.78,21.63,19.22,29.83,17.96,31.26-1.27,23.7-1.27,23.7l-2.38,23.62-24.04-2.38-17.39-36.68-24.7-27.16-3.4-15.14,1.76-14.6,3.4-13.7,5.69-14.66,11.84-17.41,9.32-9.85Z"/>
  </g>
</svg>