<?xml version="1.0" encoding="UTF-8"?>
<svg id="Layer_1" data-name="Layer 1" xmlns="http://www.w3.org/2000/svg" viewBox="0 0 792 612">
  <defs>
    <style>
      .cls-1 {
        fill: #4d4d4d;
      }

      .cls-2 {
        fill: #666;
      }

      .cls-3 {
        fill: gray;
      }
    </style>
  </defs>
  <circle class="cls-2" cx="396" cy="306" r="40.89"/>
  <g>
    <path class="cls-1" d="M385.42,319.26c0-2.87-2.33-5.2-5.2-5.2-1.17,0-2.24.4-3.11,1.06.01,0,.03,0,.04,0,2.87,0,5.2,2.33,5.2,5.2,0,1.7-.83,3.19-2.09,4.14,2.85-.02,5.16-2.34,5.16-5.19Z"/>
    <path class="cls-3" d="M382.35,320.31c0-2.87-2.33-5.2-5.2-5.2-.01,0-.03,0-.04,0-1.26.95-2.09,2.44-2.09,4.14,0,2.87,2.33,5.2,5.2,5.2.01,0,.03,0,.04,0,1.26-.95,2.09-2.44,2.09-4.14Z"/>
  </g>
  <g>
    <path class="cls-1" d="M406.21,307.1c0-2.82-2.29-5.1-5.1-5.1-1.71,0-3.21.85-4.14,2.14.5-.16,1.03-.28,1.58-.28,2.82,0,5.1,2.29,5.1,5.1,0,1.11-.36,2.13-.96,2.97,2.04-.67,3.52-2.57,3.52-4.83Z"/>
    <path class="cls-3" d="M398.55,303.86c-.56,0-1.08.11-1.58.28-.6.84-.96,1.86-.96,2.97,0,2.82,2.29,5.1,5.1,5.1.56,0,1.08-.11,1.58-.28.6-.84.96-1.86.96-2.97,0-2.82-2.29-5.1-5.1-5.1Z"/>
  </g>
  <g>
    <path class="cls-1" d="M420.62,332.93c1.86-2.12,1.65-5.34-.47-7.2-1.29-1.13-2.98-1.48-4.52-1.12.49.21.95.47,1.37.84,2.12,1.86,2.33,5.08.47,7.2-.73.83-1.68,1.36-2.68,1.59,1.97.84,4.34.39,5.83-1.31Z"/>
    <path class="cls-3" d="M417,325.44c-.42-.37-.89-.63-1.37-.84-1,.23-1.95.76-2.68,1.59-1.86,2.12-1.65,5.34.47,7.2.42.37.89.63,1.37.84,1-.23,1.95-.76,2.68-1.59,1.86-2.12,1.65-5.34-.47-7.2Z"/>
  </g>
  <g>
    <path class="cls-1" d="M396,319.79c0-1.15-.93-2.09-2.09-2.09-.7,0-1.31.35-1.69.87.21-.07.42-.11.65-.11,1.15,0,2.09.93,2.09,2.09,0,.45-.15.87-.39,1.21.83-.27,1.44-1.05,1.44-1.97Z"/>
    <path class="cls-3" d="M392.87,318.46c-.23,0-.44.05-.65.11-.25.34-.39.76-.39,1.21,0,1.15.93,2.09,2.09,2.09.23,0,.44-.05.65-.11.25-.34.39-.76.39-1.21,0-1.15-.93-2.09-2.09-2.09Z"/>
  </g>
  <g>
    <path class="cls-1" d="M403.67,278.99c0-1.15-.93-2.09-2.09-2.09-.7,0-1.31.35-1.69.87.21-.07.42-.11.65-.11,1.15,0,2.09.93,2.09,2.09,0,.45-.15.87-.39,1.21.83-.27,1.44-1.05,1.44-1.97Z"/>
    <path class="cls-3" d="M400.54,277.66c-.23,0-.44.05-.65.11-.25.34-.39.76-.39,1.21,0,1.15.93,2.09,2.09,2.09.23,0,.44-.05.65-.11.25-.34.39-.76.39-1.21,0-1.15-.93-2.09-2.09-2.09Z"/>
  </g>
  <g>
    <path class="cls-1" d="M392.83,285.08c0-4.02-3.26-7.29-7.29-7.29-1.54,0-2.97.49-4.15,1.31.37-.06.74-.11,1.12-.11,4.14,0,7.5,3.36,7.5,7.5,0,2.23-.99,4.21-2.54,5.59,3.08-.85,5.35-3.64,5.35-6.99Z"/>
    <path class="cls-3" d="M390.02,286.49c0-4.14-3.36-7.5-7.5-7.5-.38,0-.75.06-1.12.11-1.89,1.32-3.14,3.5-3.14,5.98,0,4.02,3.26,7.29,7.29,7.29.67,0,1.31-.12,1.93-.29,1.55-1.37,2.54-3.36,2.54-5.59Z"/>
  </g>
</svg>