<?xml version="1.0" encoding="UTF-8"?>
<svg id="Layer_6" data-name="Layer 6" xmlns="http://www.w3.org/2000/svg" viewBox="0 0 792 612">
  <defs>
    <style>
      .cls-1 {
        fill: none;
      }

      .cls-1, .cls-2, .cls-3, .cls-4 {
        stroke: #4d4d4d;
        stroke-miterlimit: 10;
        stroke-width: .25px;
      }

      .cls-2, .cls-5 {
        fill: #f7b462;
      }

      .cls-6 {
        fill: #4d4d4d;
      }

      .cls-3, .cls-7 {
        fill: gray;
      }

      .cls-4 {
        fill: #fff;
      }

      .cls-8 {
        fill: #1b1464;
      }

      .cls-5 {
        opacity: .05;
      }
    </style>
  </defs>
  <polygon class="cls-5" points="565.28 302.98 564.31 302.98 564.31 295.96 557.8 295.96 557.8 302.98 552.86 302.98 552.86 309.02 557.8 309.02 557.8 315.79 564.31 315.79 564.31 309.02 565.28 309.02 565.28 302.98"/>
  <rect class="cls-3" x="553.71" y="305.37" width="3.5" height="1.25"/>
  <g>
    <rect class="cls-8" x="559.06" y="296.99" width="4.28" height="6.97"/>
    <path class="cls-6" d="M563.22,297.12v6.72h-4.03v-6.72h4.03M563.47,296.87h-4.53v7.22h4.53v-7.22h0Z"/>
  </g>
  <g>
    <rect class="cls-8" x="559.06" y="308.04" width="4.28" height="6.97"/>
    <path class="cls-6" d="M563.22,308.16v6.72h-4.03v-6.72h4.03M563.47,307.91h-4.53v7.22h4.53v-7.22h0Z"/>
  </g>
  <line class="cls-4" x1="561.21" y1="297.11" x2="561.21" y2="315.13"/>
  <g>
    <rect class="cls-7" x="554.53" y="304.21" width="8.82" height="3.57"/>
    <path class="cls-6" d="M563.22,304.34v3.32h-8.57v-3.32h8.57M563.47,304.09h-9.07v3.82h9.07v-3.82h0Z"/>
  </g>
  <rect class="cls-1" x="559.07" y="298.88" width="4.28" height="3.19"/>
  <rect class="cls-1" x="559.07" y="309.93" width="4.28" height="3.19"/>
  <line class="cls-1" x1="559.07" y1="311.52" x2="563.34" y2="311.52"/>
  <line class="cls-1" x1="559.07" y1="300.48" x2="563.34" y2="300.48"/>
  <circle class="cls-2" cx="558.58" cy="306" r=".68"/>
  <circle class="cls-2" cx="560.52" cy="306" r=".68"/>
  <rect class="cls-2" x="555.46" y="306.8" width="1.48" height=".98"/>
  <rect class="cls-2" x="563.34" y="304.67" width=".97" height=".97"/>
  <rect class="cls-2" x="563.34" y="305.64" width=".97" height=".97"/>
</svg>