<?xml version="1.0" encoding="UTF-8"?>
<svg id="Layer_1" data-name="Layer 1" xmlns="http://www.w3.org/2000/svg" viewBox="0 0 792 612">
  <defs>
    <style>
      .cls-1 {
        fill: #2e3192;
      }

      .cls-2 {
        fill: #006837;
      }
    </style>
  </defs>
  <circle class="cls-1" cx="396" cy="306" r="118.08"/>
  <path class="cls-2" d="M400.48,188c.42,0,0,1.69,0,1.69l3.52,2.04-1.76,1.3h-2.31l2.04,2.68h-3.52l-.93-2.22-5.92,3.33,3.98,2.96,7.4,1.48-3.05,1.67-.93,2.41,7.5-1.85,7.87-3.7,4.72-2.59,10.92-.52,1.02,2.37-.36,2.07.36,1.91s-1.85,1.39-2.31,1.2-3.15-2.5-3.15-2.5l-2.41.19h-2.13l-.09,1.11-1.76.28.28,1.39,2.04.65-7.5.65.46,3.05h-3.15l.74,6.11-7.87,6.02,1.02,3.79,2.68,5.74.37,2.96-2.22.83-1.02-1.76-1.94-1.48-2.13-5.37-3.52-1.11-5.83-.83-5.46.83-.37,2.31-4.81-1.48-5.83.37-1.94,2.87-3.15,1.39v3.7l-1.02,5.55,1.11,7.96,4.81,2.78,8.33-1.67,2.59-6.66s9.26,1.11,8.33,1.3-4.63,9.26-4.63,9.26l-6.85,1.3,1.11,3.89,10.37,1.48,7.03-1.3s2.78,3.52,2.59,4.26.19,5.92.19,5.92l1.3,3.52h8.33l4.44,1.3,2.59-4.44,1.11-4.63,2.96.74,4.26-.19,4.81-2.96,2.04,3.7,5.92.93,5,.74,3.52,2.59,6.85.93,4.44,4.44,3.52,3.7,3.89,2.59h4.26l3.33,1.3,3.52,7.03,3.33,4.26,2.59,4.26,5.18,3.33,4.44,1.77,3.52,2.3s2.22,2.41,2.41,3.52-.19,3.7,0,4.63.66,3.89.05,4.44c-.61.56-2.46,5.18-2.46,5.18,0,0-1.85,5.74-2.41,6.11s-1.11,8.89-1.85,9.07c-.74.19-7.4,12.59-7.4,12.59h-3.7l-7.77,8.33-8.14,12.4-.93-5.37s-5.74,11.48-6.29,11.48h-6.48l.56,3.7-10.92,6.85-4.07,3.52h-3.52l-.75,3.33-2.21,3.15h-2.96l.19,3.52-4.44,3.7-3.52,2.59-2.78-4.63,1.48-4.44,2.22-3.33-.93-3.15.74-2.59v-3.15l7.4-7.4.93-4.07v-3.52l3.88-11.29.75-9.26-.75-7.22-5.36-4.44-6.66-1.67-3.7-7.77-4.44-7.22-2.59-6.11-4.44-3.7.93-6.97,3.33-2.1-3.33-3.7,2.96-4.81,3.33-1.67,2.96-4.81-1.48-3.15,1.48-1.48-.74-2.59-.74-3.52-13.14-2.78-7.81-4.81v-4.26l-13.3-4.44-10.67-3.52-9.63-1.85-11.85-4.69-2.96,1.23-3.46-.74.99-4.81-8.51-19-2.84.74,3.46,9.38s2.1,5.8,1.73,5.8-4.69-.25-4.69-.25l-3.46-12.22-1.23-8.27,2.34-7.77,5.55-6.29,6.29-4.69,7.16-3.83,9.5-5.43,9.85-4.95c.05-.17,6.84-1.63,15.32-2.36,5.17-.45,10.4-.45,14.87-.37Z"/>
  <path class="cls-2" d="M398.25,240.13l4.26-2.04s3.24-.74,5,0,6.29,2.96,6.29,2.96l3.79.93,4.63.65-3.7,1.48-1.39,1.76s-1.94-.74-2.31-.74-2.41-2.13-2.41-2.13l-1.48,1.2-2.13-2.39-4.16,1-2.5-2.5-3.89-.19Z"/>
  <polygon class="cls-2" points="425.28 247.44 426.95 246.7 426.11 244.3 429.35 244.3 431.94 244.3 435.28 245.87 438.42 250.96 429.91 250.96 425.28 247.44"/>
  <polygon class="cls-2" points="429.91 199.5 439.66 202.09 438.42 200.8 434.78 199.5 429.29 197.28 429.91 199.5"/>
</svg>