<?xml version="1.0" encoding="UTF-8"?>
<svg id="Layer_1" data-name="Layer 1" xmlns="http://www.w3.org/2000/svg" viewBox="0 0 792 612">
  <defs>
    <style>
      .cls-1 {
        fill: #2e3192;
      }

      .cls-2 {
        fill: #4d4d4d;
      }

      .cls-3 {
        fill: #666;
      }

      .cls-4 {
        fill: #006837;
      }

      .cls-5 {
        fill: gray;
      }
    </style>
  </defs>
  <g>
    <circle class="cls-1" cx="396" cy="306" r="118.08"/>
    <path class="cls-4" d="M400.48,188c.42,0,0,1.69,0,1.69l3.52,2.04-1.76,1.3h-2.31l2.04,2.68h-3.52l-.93-2.22-5.92,3.33,3.98,2.96,7.4,1.48-3.05,1.67-.93,2.41,7.5-1.85,7.87-3.7,4.72-2.59,10.92-.52,1.02,2.37-.36,2.07.36,1.91s-1.85,1.39-2.31,1.2-3.15-2.5-3.15-2.5l-2.41.19h-2.13l-.09,1.11-1.76.28.28,1.39,2.04.65-7.5.65.46,3.05h-3.15l.74,6.11-7.87,6.02,1.02,3.79,2.68,5.74.37,2.96-2.22.83-1.02-1.76-1.94-1.48-2.13-5.37-3.52-1.11-5.83-.83-5.46.83-.37,2.31-4.81-1.48-5.83.37-1.94,2.87-3.15,1.39v3.7l-1.02,5.55,1.11,7.96,4.81,2.78,8.33-1.67,2.59-6.66s9.26,1.11,8.33,1.3-4.63,9.26-4.63,9.26l-6.85,1.3,1.11,3.89,10.37,1.48,7.03-1.3s2.78,3.52,2.59,4.26.19,5.92.19,5.92l1.3,3.52h8.33l4.44,1.3,2.59-4.44,1.11-4.63,2.96.74,4.26-.19,4.81-2.96,2.04,3.7,5.92.93,5,.74,3.52,2.59,6.85.93,4.44,4.44,3.52,3.7,3.89,2.59h4.26l3.33,1.3,3.52,7.03,3.33,4.26,2.59,4.26,5.18,3.33,4.44,1.77,3.52,2.3s2.22,2.41,2.41,3.52-.19,3.7,0,4.63.66,3.89.05,4.44c-.61.56-2.46,5.18-2.46,5.18,0,0-1.85,5.74-2.41,6.11s-1.11,8.89-1.85,9.07c-.74.19-7.4,12.59-7.4,12.59h-3.7l-7.77,8.33-8.14,12.4-.93-5.37s-5.74,11.48-6.29,11.48h-6.48l.56,3.7-10.92,6.85-4.07,3.52h-3.52l-.75,3.33-2.21,3.15h-2.96l.19,3.52-4.44,3.7-3.52,2.59-2.78-4.63,1.48-4.44,2.22-3.33-.93-3.15.74-2.59v-3.15l7.4-7.4.93-4.07v-3.52l3.88-11.29.75-9.26-.75-7.22-5.36-4.44-6.66-1.67-3.7-7.77-4.44-7.22-2.59-6.11-4.44-3.7.93-6.97,3.33-2.1-3.33-3.7,2.96-4.81,3.33-1.67,2.96-4.81-1.48-3.15,1.48-1.48-.74-2.59-.74-3.52-13.14-2.78-7.81-4.81v-4.26l-13.3-4.44-10.67-3.52-9.63-1.85-11.85-4.69-2.96,1.23-3.46-.74.99-4.81-8.51-19-2.84.74,3.46,9.38s2.1,5.8,1.73,5.8-4.69-.25-4.69-.25l-3.46-12.22-1.23-8.27,2.34-7.77,5.55-6.29,6.29-4.69,7.16-3.83,9.5-5.43,9.85-4.95c.05-.17,6.84-1.63,15.32-2.36,5.17-.45,10.4-.45,14.87-.37Z"/>
    <path class="cls-4" d="M398.25,240.13l4.26-2.04s3.24-.74,5,0,6.29,2.96,6.29,2.96l3.79.93,4.63.65-3.7,1.48-1.39,1.76s-1.94-.74-2.31-.74-2.41-2.13-2.41-2.13l-1.48,1.2-2.13-2.39-4.16,1-2.5-2.5-3.89-.19Z"/>
    <polygon class="cls-4" points="425.28 247.44 426.95 246.7 426.11 244.3 429.35 244.3 431.94 244.3 435.28 245.87 438.42 250.96 429.91 250.96 425.28 247.44"/>
    <polygon class="cls-4" points="429.91 199.5 439.66 202.09 438.42 200.8 434.78 199.5 429.29 197.28 429.91 199.5"/>
  </g>
  <g>
    <circle class="cls-3" cx="604.5" cy="118.39" r="40.89"/>
    <g>
      <path class="cls-2" d="M593.92,131.66c0-2.87-2.33-5.2-5.2-5.2-1.17,0-2.24.4-3.11,1.06.01,0,.03,0,.04,0,2.87,0,5.2,2.33,5.2,5.2,0,1.7-.83,3.19-2.09,4.14,2.85-.02,5.16-2.34,5.16-5.19Z"/>
      <path class="cls-5" d="M590.85,132.71c0-2.87-2.33-5.2-5.2-5.2-.01,0-.03,0-.04,0-1.26.95-2.09,2.44-2.09,4.14,0,2.87,2.33,5.2,5.2,5.2.01,0,.03,0,.04,0,1.26-.95,2.09-2.44,2.09-4.14Z"/>
    </g>
    <g>
      <path class="cls-2" d="M614.71,119.49c0-2.82-2.29-5.1-5.1-5.1-1.71,0-3.21.85-4.14,2.14.5-.16,1.03-.28,1.58-.28,2.82,0,5.1,2.29,5.1,5.1,0,1.11-.36,2.13-.96,2.97,2.04-.67,3.52-2.57,3.52-4.83Z"/>
      <path class="cls-5" d="M607.05,116.25c-.56,0-1.08.11-1.58.28-.6.84-.96,1.86-.96,2.97,0,2.82,2.29,5.1,5.1,5.1.56,0,1.08-.11,1.58-.28.6-.84.96-1.86.96-2.97,0-2.82-2.29-5.1-5.1-5.1Z"/>
    </g>
    <g>
      <path class="cls-2" d="M629.12,145.32c1.86-2.12,1.65-5.34-.47-7.2-1.29-1.13-2.98-1.48-4.52-1.12.49.21.95.47,1.37.84,2.12,1.86,2.33,5.08.47,7.2-.73.83-1.68,1.36-2.68,1.59,1.97.84,4.34.39,5.83-1.31Z"/>
      <path class="cls-5" d="M625.5,137.84c-.42-.37-.89-.63-1.37-.84-1,.23-1.95.76-2.68,1.59-1.86,2.12-1.65,5.34.47,7.2.42.37.89.63,1.37.84,1-.23,1.95-.76,2.68-1.59,1.86-2.12,1.65-5.34-.47-7.2Z"/>
    </g>
    <g>
      <path class="cls-2" d="M604.5,132.18c0-1.15-.93-2.09-2.09-2.09-.7,0-1.31.35-1.69.87.21-.07.42-.11.65-.11,1.15,0,2.09.93,2.09,2.09,0,.45-.15.87-.39,1.21.83-.27,1.44-1.05,1.44-1.97Z"/>
      <path class="cls-5" d="M601.37,130.86c-.23,0-.44.05-.65.11-.25.34-.39.76-.39,1.21,0,1.15.93,2.09,2.09,2.09.23,0,.44-.05.65-.11.25-.34.39-.76.39-1.21,0-1.15-.93-2.09-2.09-2.09Z"/>
    </g>
    <g>
      <path class="cls-2" d="M612.18,91.38c0-1.15-.93-2.09-2.09-2.09-.7,0-1.31.35-1.69.87.21-.07.42-.11.65-.11,1.15,0,2.09.93,2.09,2.09,0,.45-.15.87-.39,1.21.83-.27,1.44-1.05,1.44-1.97Z"/>
      <path class="cls-5" d="M609.04,90.06c-.23,0-.44.05-.65.11-.25.34-.39.76-.39,1.21,0,1.15.93,2.09,2.09,2.09.23,0,.44-.05.65-.11.25-.34.39-.76.39-1.21,0-1.15-.93-2.09-2.09-2.09Z"/>
    </g>
    <g>
      <path class="cls-2" d="M601.33,97.47c0-4.02-3.26-7.29-7.29-7.29-1.54,0-2.97.49-4.15,1.31.37-.06.74-.11,1.12-.11,4.14,0,7.5,3.36,7.5,7.5,0,2.23-.99,4.21-2.54,5.59,3.08-.85,5.35-3.64,5.35-6.99Z"/>
      <path class="cls-5" d="M598.52,98.88c0-4.14-3.36-7.5-7.5-7.5-.38,0-.75.06-1.12.11-1.89,1.32-3.14,3.5-3.14,5.98,0,4.02,3.26,7.29,7.29,7.29.67,0,1.31-.12,1.93-.29,1.55-1.37,2.54-3.36,2.54-5.59Z"/>
    </g>
  </g>
</svg>